<svg xmlns="http://www.w3.org/2000/svg" viewBox="0 0 512.001 512.001" style="enable-background:new 0 0 512.001 512.001" xml:space="preserve">
    <path style="fill:#d5dced" d="M25.988 52.527V335.62c0 24.429 63.373 44.233 141.546 44.233S309.08 360.049 309.08 335.62V52.527H25.988z" />
    <path style="fill:#c7cfe2" d="M167.534 175.827c38.624 0 75.048-4.735 102.563-13.333 13.063-4.083 23.514-8.861 31.243-14.22v-27.932a8.252 8.252 0 0 0-.553 2.958c0 14.653-51.909 35.94-133.253 35.94-6.207 0-12.24-.125-18.092-.362-4.727-.191-8.447-4.107-8.447-8.838V52.527H25.988V335.62c0 21.591 49.531 39.543 115.006 43.429v-53.165c0-5.026 4.178-9.022 9.199-8.833 5.715.213 11.502.323 17.341.323 38.624 0 75.048-4.735 102.563-13.333 1.726-.54 3.404-1.093 5.039-1.655l-.13-17.645c-22.989 8.879-60.273 16.046-107.471 16.046-6.207 0-12.24-.125-18.092-.362-4.727-.191-8.447-4.107-8.447-8.838v-36.475c0-5.026 4.178-9.022 9.199-8.833 5.715.212 11.502.322 17.341.322 38.624 0 75.048-4.735 102.563-13.333 13.063-4.083 23.514-8.861 31.243-14.22v-27.932a8.252 8.252 0 0 0-.553 2.958c0 14.653-51.909 35.94-133.253 35.94-6.207 0-12.24-.125-18.092-.362-4.727-.191-8.447-4.107-8.447-8.838v-36.475c0-5.026 4.178-9.022 9.199-8.833 5.712.212 11.499.321 17.338.321z" />
    <ellipse style="fill:#e4eaf8" cx="167.534" cy="52.527" rx="141.546" ry="44.233" />
    <path style="fill:#7f8499" d="m405.949 448.663 25.022-25.022 25.022 25.022a8.846 8.846 0 0 1 0 12.511l-12.511 12.511a8.846 8.846 0 0 1-12.511 0l-25.022-25.022zM318.372 311.043l-25.022 25.022-25.022-25.022a8.846 8.846 0 0 1 0-12.511l12.511-12.511a8.846 8.846 0 0 1 12.511 0l25.022 25.022zM430.971 336.064l-25.022-25.022 25.022-25.022a8.846 8.846 0 0 1 12.511 0l12.511 12.511a8.846 8.846 0 0 1 0 12.511l-25.022 25.022zM293.35 423.642l25.022 25.022-25.022 25.022a8.846 8.846 0 0 1-12.511 0l-12.511-12.511a8.846 8.846 0 0 1 0-12.511l25.022-25.022zM441.78 397.546V362.16h35.387a8.847 8.847 0 0 1 8.847 8.847V388.7a8.847 8.847 0 0 1-8.847 8.847H441.78zM282.54 362.16v35.387h-35.387a8.847 8.847 0 0 1-8.847-8.847v-17.693a8.847 8.847 0 0 1 8.847-8.847h35.387zM379.854 300.233h-35.387v-35.387a8.847 8.847 0 0 1 8.847-8.847h17.693a8.847 8.847 0 0 1 8.847 8.847v35.387zM344.467 459.473h35.387v35.387a8.847 8.847 0 0 1-8.847 8.847h-17.693a8.847 8.847 0 0 1-8.847-8.847v-35.387z" />
    <path style="fill:#707487" d="M362.16 281.987c-54.05 0-97.866 43.816-97.866 97.866s43.816 97.866 97.866 97.866 97.866-43.816 97.866-97.866-43.816-97.866-97.866-97.866zm0 133.454c-19.654 0-35.588-15.933-35.588-35.588s15.933-35.588 35.588-35.588 35.588 15.933 35.588 35.588-15.934 35.588-35.588 35.588z" />
    <path style="fill:#5b5d6e" d="M362.16 309.08c-39.087 0-70.773 31.686-70.773 70.773s31.686 70.773 70.773 70.773 70.773-31.686 70.773-70.773-31.686-70.773-70.773-70.773zm0 106.16c-19.543 0-35.387-15.843-35.387-35.387s15.843-35.387 35.387-35.387 35.387 15.843 35.387 35.387-15.843 35.387-35.387 35.387z" />
    <path d="M362.16 317.374a62.77 62.77 0 0 1 15.633 1.97 8.294 8.294 0 0 0 4.138-16.063 79.323 79.323 0 0 0-19.771-2.495c-43.597 0-79.067 35.47-79.067 79.067 0 13.896 3.658 27.565 10.578 39.532a8.293 8.293 0 0 0 11.332 3.028 8.292 8.292 0 0 0 3.027-11.331c-5.462-9.447-8.349-20.244-8.349-31.229 0-34.451 28.028-62.479 62.479-62.479zM428.643 354.143a8.292 8.292 0 0 0-5.967 10.097 62.725 62.725 0 0 1 1.964 15.613c0 34.451-28.028 62.479-62.479 62.479-10.994 0-21.804-2.893-31.257-8.367-3.961-2.295-9.038-.942-11.333 3.022a8.294 8.294 0 0 0 3.021 11.334c11.976 6.935 25.659 10.599 39.568 10.599 43.597 0 79.067-35.47 79.067-79.067a79.35 79.35 0 0 0-2.487-19.742 8.288 8.288 0 0 0-10.097-5.968zM401.206 331.074a62.968 62.968 0 0 1 9.704 9.696 8.278 8.278 0 0 0 6.472 3.101 8.255 8.255 0 0 0 5.187-1.828 8.294 8.294 0 0 0 1.273-11.66 79.607 79.607 0 0 0-12.264-12.253 8.296 8.296 0 0 0-11.659 1.285 8.296 8.296 0 0 0 1.287 11.659z" />
    <path d="M477.167 353.866h-3.638a112.585 112.585 0 0 0-14.23-34.4l2.56-2.56c6.68-6.681 6.68-17.555-.001-24.239l-12.51-12.511c-6.685-6.684-17.556-6.683-24.241 0l-2.558 2.559a112.575 112.575 0 0 0-34.4-14.23v-3.638c0-9.452-7.689-17.14-17.14-17.14h-17.693c-9.452 0-17.14 7.689-17.14 17.14v3.638a112.575 112.575 0 0 0-34.4 14.23l-2.558-2.559c-6.683-6.681-17.557-6.684-24.24 0l-12.512 12.512c-6.68 6.681-6.68 17.555.001 24.239l2.559 2.559a112.56 112.56 0 0 0-14.23 34.4h-3.638c-9.452 0-17.14 7.689-17.14 17.14V388.7c0 9.452 7.689 17.14 17.14 17.14h3.638a112.569 112.569 0 0 0 14.23 34.399l-2.561 2.56c-6.679 6.683-6.679 17.555.002 24.24l12.51 12.51a17.03 17.03 0 0 0 12.121 5.022c4.578 0 8.882-1.783 12.12-5.02l2.558-2.559a112.577 112.577 0 0 0 34.4 14.231v3.638c0 9.452 7.689 17.14 17.14 17.14h17.693c9.452 0 17.14-7.689 17.14-17.14v-3.638a112.577 112.577 0 0 0 34.4-14.231l2.558 2.559a17.029 17.029 0 0 0 12.12 5.022c4.579 0 8.883-1.783 12.12-5.02l12.514-12.512c6.679-6.683 6.679-17.555-.002-24.24l-2.559-2.559a112.554 112.554 0 0 0 14.23-34.399h3.638c9.452 0 17.14-7.689 17.14-17.14V371.01c-.001-9.455-7.69-17.144-17.141-17.144zm.553 34.834a.554.554 0 0 1-.553.553h-10.438a8.294 8.294 0 0 0-8.179 6.919c-2.466 14.671-8.078 28.235-16.678 40.315a8.294 8.294 0 0 0 .892 10.676l7.365 7.365a.556.556 0 0 1 .002.783l-12.512 12.511c-.04.04-.161.161-.391.161-.228 0-.349-.122-.39-.161l-7.366-7.366a8.295 8.295 0 0 0-10.675-.892c-12.08 8.6-25.644 14.212-40.316 16.679a8.293 8.293 0 0 0-6.919 8.179v10.438a.554.554 0 0 1-.553.553h-17.693a.554.554 0 0 1-.553-.553v-10.438a8.293 8.293 0 0 0-6.919-8.179c-14.672-2.467-28.236-8.079-40.316-16.679a8.273 8.273 0 0 0-4.808-1.537 8.284 8.284 0 0 0-5.868 2.43l-7.366 7.367c-.04.04-.161.161-.39.161a.522.522 0 0 1-.391-.163l-12.51-12.509a.556.556 0 0 1-.002-.783l7.367-7.366a8.294 8.294 0 0 0 .892-10.676c-8.6-12.08-14.212-25.644-16.678-40.315a8.293 8.293 0 0 0-8.179-6.919h-10.439a.554.554 0 0 1-.553-.553v-17.693c0-.305.249-.553.553-.553h10.438a8.294 8.294 0 0 0 8.179-6.919c2.466-14.672 8.078-28.236 16.678-40.316a8.294 8.294 0 0 0-.892-10.676l-7.366-7.365a.555.555 0 0 1-.001-.783l12.512-12.511a.553.553 0 0 1 .781 0l7.366 7.366a8.294 8.294 0 0 0 10.675.892c12.08-8.6 25.643-14.212 40.316-16.679a8.293 8.293 0 0 0 6.919-8.179v-10.438c0-.305.249-.553.553-.553h17.693c.304 0 .553.248.553.553v10.438a8.293 8.293 0 0 0 6.919 8.179c14.673 2.467 28.236 8.079 40.316 16.679a8.293 8.293 0 0 0 10.675-.892l7.366-7.366a.554.554 0 0 1 .782 0l12.51 12.51a.555.555 0 0 1 .001.783l-7.367 7.366a8.294 8.294 0 0 0-.892 10.676c8.6 12.08 14.212 25.644 16.678 40.316a8.293 8.293 0 0 0 8.179 6.919h10.438c.304 0 .553.248.553.553V388.7h.002z" />
    <path d="M318.48 379.853c0 24.085 19.595 43.68 43.68 43.68s43.68-19.595 43.68-43.68-19.595-43.68-43.68-43.68-43.68 19.595-43.68 43.68zm70.773 0c0 14.939-12.153 27.093-27.093 27.093s-27.093-12.154-27.093-27.093 12.153-27.093 27.093-27.093 27.093 12.154 27.093 27.093zM236.831 153.455a329.56 329.56 0 0 1-17.261 2.635 8.294 8.294 0 0 0 2.081 16.457 347.665 347.665 0 0 0 18.131-2.769 8.294 8.294 0 1 0-2.951-16.323zM220.6 243.387c.346 0 .699-.022 1.051-.066a347.665 347.665 0 0 0 18.131-2.769 8.294 8.294 0 0 0-2.95-16.322 329.56 329.56 0 0 1-17.261 2.635 8.293 8.293 0 0 0-7.187 9.269c.528 4.19 4.1 7.253 8.216 7.253zM237.657 303.384a8.296 8.296 0 0 0-9.448-6.95c-2.821.43-5.728.835-8.639 1.202a8.294 8.294 0 0 0 2.08 16.457c3.051-.386 6.098-.809 9.057-1.261a8.293 8.293 0 0 0 6.95-9.448z" />
    <path d="M202.256 370.193c-11.275.907-22.956 1.367-34.722 1.367-36.992 0-71.659-4.468-97.614-12.579-26.306-8.22-35.639-17.721-35.639-23.361v-45.417c7.671 5.204 17.938 9.852 30.69 13.837 27.514 8.598 63.938 13.333 102.563 13.333 6.028 0 12.09-.117 18.016-.348a8.293 8.293 0 0 0 7.963-8.611c-.178-4.577-4.036-8.154-8.611-7.964-5.712.223-11.555.336-17.368.336-81.344 0-133.253-21.286-133.253-35.94V219.43c7.671 5.204 17.938 9.852 30.69 13.837 27.514 8.598 63.938 13.333 102.563 13.333 6.028 0 12.09-.117 18.016-.348a8.293 8.293 0 0 0 7.963-8.611c-.178-4.577-4.036-8.15-8.611-7.964-5.712.223-11.555.336-17.368.336-81.344 0-133.253-21.286-133.253-35.94v-45.417c7.671 5.204 17.938 9.852 30.69 13.837 27.514 8.598 63.938 13.333 102.563 13.333 6.028 0 12.09-.117 18.016-.348a8.294 8.294 0 0 0-.648-16.575c-5.712.223-11.555.336-17.368.336-81.344 0-133.253-21.286-133.253-35.94V77.884c7.671 5.204 17.938 9.852 30.69 13.837 27.514 8.598 63.938 13.333 102.563 13.333s75.048-4.735 102.563-13.333c12.752-3.985 23.019-8.633 30.69-13.837V123.3c0 8.022-16.088 16.564-29.864 21.442a8.293 8.293 0 0 0-5.05 10.586 8.295 8.295 0 0 0 7.818 5.528c.918 0 1.853-.154 2.768-.478 8.142-2.883 16.966-6.753 24.328-11.752v45.446c0 8.022-16.088 16.564-29.864 21.442a8.293 8.293 0 0 0-5.05 10.586 8.295 8.295 0 0 0 7.818 5.528c.918 0 1.853-.154 2.768-.478 8.142-2.883 16.966-6.753 24.328-11.752v27.753a8.294 8.294 0 0 0 8.294 8.294 8.294 8.294 0 0 0 8.294-8.294V52.527c0-15.975-16.349-29.529-47.278-39.194C242.582 4.735 206.158 0 167.534 0S92.486 4.735 64.971 13.333c-30.929 9.665-47.278 23.219-47.278 39.194V335.62c0 15.975 16.349 29.528 47.278 39.194 27.514 8.598 63.938 13.333 102.563 13.333 12.207 0 24.337-.478 36.053-1.42a8.293 8.293 0 0 0 7.601-8.933c-.366-4.565-4.375-7.964-8.932-7.601zM167.534 16.587c81.344 0 133.253 21.286 133.253 35.94s-51.909 35.94-133.253 35.94S34.281 67.18 34.281 52.527s51.909-35.94 133.253-35.94z" />
</svg>