<svg xmlns="http://www.w3.org/2000/svg" viewBox="0 0 512 512"><defs><style>.cls-1{fill:#10a18c;}.cls-2{fill:#707789;}.cls-3{fill:#fff;}.cls-4{fill:#5b6272;}.cls-5{fill:#f92814;}.cls-6{fill:#80dbff;}.cls-7{fill:#23a8fe;}.cls-8{fill:#ffda45;}.cls-9{fill:#76d67b;}.cls-10{fill:#9e6f46;}.cls-11{fill:#7f5637;}.cls-12{fill:#eac93d;}</style></defs><title>Development</title><g id="BULINE"><circle class="cls-1" cx="256" cy="256" r="256"/></g><g id="Icons"><path class="cls-2" d="M107.42,69.27H402.9a32,32,0,0,1,32,32V301a0,0,0,0,1,0,0H75.42a0,0,0,0,1,0,0V101.27A32,32,0,0,1,107.42,69.27Z"/><path class="cls-3" d="M125.14,88.9h260A28.77,28.77,0,0,1,414,117.68v153.5a29.8,29.8,0,0,1-29.8,29.8h-258a29.8,29.8,0,0,1-29.8-29.8V117.68A28.77,28.77,0,0,1,125.14,88.9Z"/><rect class="cls-2" x="32.16" y="300.97" width="436" height="63.2" rx="22"/><path class="cls-4" d="M201.83,301H308.49a0,0,0,0,1,0,0v10.79a19.6,19.6,0,0,1-19.6,19.6H221.42a19.6,19.6,0,0,1-19.6-19.6V301A0,0,0,0,1,201.83,301Z"/><path class="cls-5" d="M86.49,284.51h8.67a8.67,8.67,0,0,1,8.67,8.67V301a0,0,0,0,1,0,0h-26a0,0,0,0,1,0,0v-7.8A8.67,8.67,0,0,1,86.49,284.51Z"/><path class="cls-5" d="M119.16,284.51h8.67a8.67,8.67,0,0,1,8.67,8.67V301a0,0,0,0,1,0,0h-26a0,0,0,0,1,0,0v-7.8A8.67,8.67,0,0,1,119.16,284.51Z"/><path class="cls-5" d="M151.83,284.51h8.67a8.67,8.67,0,0,1,8.67,8.67V301a0,0,0,0,1,0,0h-26a0,0,0,0,1,0,0v-7.8A8.67,8.67,0,0,1,151.83,284.51Z"/><path class="cls-5" d="M184.49,284.51h8.67a8.67,8.67,0,0,1,8.67,8.67V301a0,0,0,0,1,0,0h-26a0,0,0,0,1,0,0v-7.8A8.67,8.67,0,0,1,184.49,284.51Z"/><path class="cls-5" d="M227.52,284.51h55.29a15.85,15.85,0,0,1,15.85,15.85V301a0,0,0,0,1,0,0h-87a0,0,0,0,1,0,0v-.62A15.85,15.85,0,0,1,227.52,284.51Z"/><path class="cls-5" d="M320.83,284.51h8.67a8.67,8.67,0,0,1,8.67,8.67V301a0,0,0,0,1,0,0h-26a0,0,0,0,1,0,0v-7.8A8.67,8.67,0,0,1,320.83,284.51Z"/><path class="cls-5" d="M353.49,284.51h8.67a8.67,8.67,0,0,1,8.67,8.67V301a0,0,0,0,1,0,0h-26a0,0,0,0,1,0,0v-7.8A8.67,8.67,0,0,1,353.49,284.51Z"/><path class="cls-5" d="M386.16,284.51h8.67a8.67,8.67,0,0,1,8.67,8.67V301a0,0,0,0,1,0,0h-26a0,0,0,0,1,0,0v-7.8A8.67,8.67,0,0,1,386.16,284.51Z"/><path class="cls-5" d="M418.83,284.51h8.67a8.67,8.67,0,0,1,8.67,8.67V301a0,0,0,0,1,0,0h-26a0,0,0,0,1,0,0v-7.8A8.67,8.67,0,0,1,418.83,284.51Z"/><path class="cls-6" d="M387.65,127.35V242.89a18.55,18.55,0,0,1-18.54,18.55H141.21a18.55,18.55,0,0,1-18.54-18.55V127.35a18.54,18.54,0,0,1,18.54-18.54h227.9A18.54,18.54,0,0,1,387.65,127.35Z"/><path class="cls-7" d="M387.65,127.35v10.81h-265V127.35a18.54,18.54,0,0,1,18.54-18.54h227.9A18.54,18.54,0,0,1,387.65,127.35Z"/><circle class="cls-5" cx="146.8" cy="123.48" r="7.39"/><circle class="cls-8" cx="170.14" cy="123.48" r="7.39"/><circle class="cls-9" cx="193.48" cy="123.48" r="7.39"/><path class="cls-10" d="M488.08,364.17a256.07,256.07,0,0,1-440.17,41,254.5,254.5,0,0,1-24-41Z"/><path class="cls-11" d="M464.09,405.14a256,256,0,0,1-416.18,0Z"/><circle class="cls-8" cx="255.81" cy="108.81" r="95.97"/><circle class="cls-12" cx="255.16" cy="108.81" r="68.12"/><path class="cls-3" d="M176.63,99.62l43.69-18.07A8.48,8.48,0,0,1,232,89.38h0a8.49,8.49,0,0,1-5.41,7.9l-11.32,4.4a8.48,8.48,0,0,0,0,15.81l11.3,4.38a8.46,8.46,0,0,1,5.42,7.9h0a8.48,8.48,0,0,1-11.72,7.84l-43.69-18.08a8.47,8.47,0,0,1-5.24-7.83v-4.25A8.49,8.49,0,0,1,176.63,99.62Z"/><path class="cls-3" d="M340.22,107.46v4.25a8.46,8.46,0,0,1-5.23,7.83L291.3,137.62a8.48,8.48,0,0,1-11.72-7.84h0a8.47,8.47,0,0,1,5.41-7.9l11.31-4.38a8.48,8.48,0,0,0,0-15.81L285,97.29a8.49,8.49,0,0,1-5.4-7.9h0a8.48,8.48,0,0,1,11.72-7.83L335,99.62A8.48,8.48,0,0,1,340.22,107.46Z"/></g></svg>