<svg xmlns="http://www.w3.org/2000/svg" viewBox="0 0 64 64">
    <defs>
        <style>.cls-1{fill:#dfe1ea}.cls-5{fill:#bec3d2}.cls-7{fill:#fff}</style>
    </defs>
    <g id="_23-Website" data-name="23-Website">
        <path class="cls-1" d="M63 11v50a2.006 2.006 0 0 1-2 2H3a2.006 2.006 0 0 1-2-2V11z" />
        <path d="M61 1a2.006 2.006 0 0 1 2 2v8H1V3a2.006 2.006 0 0 1 2-2z" style="fill:#adb2c7" />
        <path d="M39.6 21c-7.6 0-7.6-2-15.2-2s-7.6 2-15.2 2A26.743 26.743 0 0 1 1 19.844v8A26.743 26.743 0 0 0 9.2 29c7.6 0 7.6-2 15.2-2s7.6 2 15.2 2 7.6-2 15.2-2a26.787 26.787 0 0 1 8.2 1.157v-8A26.787 26.787 0 0 0 54.8 19c-7.6 0-7.6 2-15.2 2z" style="fill:#cdd2e1" />
        <path d="M1 11v8.844A26.743 26.743 0 0 0 9.2 21c7.6 0 7.6-2 15.2-2s7.6 2 15.2 2 7.6-2 15.2-2a26.787 26.787 0 0 1 8.2 1.157V11z" style="fill:#f6fafd" />
        <rect class="cls-5" x="6" y="16" width="56" height="20" rx="1.083" ry="1.083" />
        <rect class="cls-5" x="15" y="38" width="14" height="11" rx=".803" ry=".803" />
        <rect class="cls-5" x="23" y="41" width="18" height="17" rx=".763" ry=".763" />
        <g id="_Group_" data-name="&lt;Group&gt;">
            <path style="fill:#8dd5f6" d="M43 38h16v6H43z" />
            <path class="cls-7" d="M38 39v16H22l16-16z" />
            <path class="cls-1" d="M28 45v-6h10L22 55V45h6z" />
            <path class="cls-7" d="M28 39v6H12l16-16v10z" />
            <path class="cls-1" d="M28 29 12 45V29h16z" />
            <path style="fill:#ffc247" d="M59 15v18H28v-4H12v4H5V15h54z" />
            <path d="M5 15v5.73a28.99 28.99 0 0 0 4.2.27c7.6 0 7.6-2 15.2-2s7.6 2 15.2 2 7.6-2 15.2-2a28.919 28.919 0 0 1 4.2.271V15z" style="fill:#ffa426" />
            <path class="cls-7" d="M43 38h6v6h-6zM5 5h2v2H5zM14 5h45v2H14z" />
            <path d="M61 0H3a3 3 0 0 0-3 3v58a3 3 0 0 0 3 3h58a3 3 0 0 0 3-3V3a3 3 0 0 0-3-3zM3 2h58a1 1 0 0 1 1 1v7H2V3a1 1 0 0 1 1-1zm58 60H3a1 1 0 0 1-1-1V12h60v49a1 1 0 0 1-1 1z" />
            <path d="M9 5h2v2H9zM59 14H5a1 1 0 0 0-1 1v18a1 1 0 0 0 1 1h6v11a1 1 0 0 0 1 1h9v9a1 1 0 0 0 1 1h16a1 1 0 0 0 1-1V39a1 1 0 0 0-1-1h-9v-4h30a1 1 0 0 0 1-1V15a1 1 0 0 0-1-1zM13 42.586V30h12.586zm14-11.172V44H14.414zM24.414 54 37 41.414V54zm11.172-14L23 52.586V46h5a1 1 0 0 0 1-1v-5zM58 32H29v-3a1 1 0 0 0-1-1H12a1 1 0 0 0-1 1v3H6V16h52z" />
            <path d="M59 37H43a1 1 0 0 0-1 1v6a1 1 0 0 0 1 1h16a1 1 0 0 0 1-1v-6a1 1 0 0 0-1-1zm-1 6H44v-4h14zM43 56h16v2H43zM43 52h16v2H43zM54 48h5v2h-5zM47 48h5v2h-5z" />
        </g>
    </g>
</svg>